<mxfile host="app.diagrams.net" agent="Mozilla/5.0 (X11; Linux x86_64; rv:128.0) Gecko/20100101 Firefox/128.0" version="26.0.16">
  <diagram name="Page-1" id="sUtSNQZAsD9c8u-VTn47">
    <mxGraphModel dx="2309" dy="1241" grid="0" gridSize="10" guides="1" tooltips="1" connect="1" arrows="1" fold="1" page="0" pageScale="1" pageWidth="850" pageHeight="1100" math="0" shadow="0">
      <root>
        <mxCell id="0" />
        <mxCell id="1" parent="0" />
        <mxCell id="tiwmTEYdAeQqdNXuYiC4-5" style="edgeStyle=none;curved=1;rounded=0;orthogonalLoop=1;jettySize=auto;html=1;fontSize=12;startSize=8;endSize=8;" edge="1" parent="1" source="tiwmTEYdAeQqdNXuYiC4-2" target="tiwmTEYdAeQqdNXuYiC4-4">
          <mxGeometry relative="1" as="geometry" />
        </mxCell>
        <mxCell id="tiwmTEYdAeQqdNXuYiC4-2" value="Pila_S pila_estatica_init(dato_t* memoria, size_t capacidad)" style="shape=step;perimeter=stepPerimeter;whiteSpace=wrap;html=1;fixedSize=1;" vertex="1" parent="1">
          <mxGeometry x="-552" y="-184" width="378" height="54" as="geometry" />
        </mxCell>
        <mxCell id="tiwmTEYdAeQqdNXuYiC4-3" value="FIN" style="ellipse;whiteSpace=wrap;html=1;" vertex="1" parent="1">
          <mxGeometry x="-410" y="-10" width="94" height="48" as="geometry" />
        </mxCell>
        <mxCell id="tiwmTEYdAeQqdNXuYiC4-6" style="edgeStyle=none;curved=1;rounded=0;orthogonalLoop=1;jettySize=auto;html=1;fontSize=12;startSize=8;endSize=8;" edge="1" parent="1" source="tiwmTEYdAeQqdNXuYiC4-4" target="tiwmTEYdAeQqdNXuYiC4-3">
          <mxGeometry relative="1" as="geometry" />
        </mxCell>
        <mxCell id="tiwmTEYdAeQqdNXuYiC4-4" value="return (Pila_S){.base=memoria, .tamano=0, .capacidad=capacidad};" style="rounded=0;whiteSpace=wrap;html=1;" vertex="1" parent="1">
          <mxGeometry x="-523" y="-96" width="320" height="60" as="geometry" />
        </mxCell>
        <mxCell id="tiwmTEYdAeQqdNXuYiC4-26" style="edgeStyle=orthogonalEdgeStyle;shape=connector;rounded=0;orthogonalLoop=1;jettySize=auto;html=1;entryX=0.5;entryY=0;entryDx=0;entryDy=0;strokeColor=default;align=center;verticalAlign=middle;fontFamily=Helvetica;fontSize=12;fontColor=default;labelBackgroundColor=default;startSize=8;endArrow=classic;endSize=8;" edge="1" parent="1" source="tiwmTEYdAeQqdNXuYiC4-7" target="tiwmTEYdAeQqdNXuYiC4-11">
          <mxGeometry relative="1" as="geometry" />
        </mxCell>
        <mxCell id="tiwmTEYdAeQqdNXuYiC4-7" value="int pila_estatica_insertar(Pila_S* pila, dato_t dato)" style="shape=step;perimeter=stepPerimeter;whiteSpace=wrap;html=1;fixedSize=1;" vertex="1" parent="1">
          <mxGeometry x="-552" y="116" width="378" height="54" as="geometry" />
        </mxCell>
        <mxCell id="tiwmTEYdAeQqdNXuYiC4-25" style="edgeStyle=orthogonalEdgeStyle;shape=connector;rounded=0;orthogonalLoop=1;jettySize=auto;html=1;entryX=0.5;entryY=0;entryDx=0;entryDy=0;strokeColor=default;align=center;verticalAlign=middle;fontFamily=Helvetica;fontSize=12;fontColor=default;labelBackgroundColor=default;startSize=8;endArrow=classic;endSize=8;" edge="1" parent="1" source="tiwmTEYdAeQqdNXuYiC4-8" target="tiwmTEYdAeQqdNXuYiC4-24">
          <mxGeometry relative="1" as="geometry" />
        </mxCell>
        <mxCell id="tiwmTEYdAeQqdNXuYiC4-8" value="" style="ellipse;whiteSpace=wrap;html=1;aspect=fixed;" vertex="1" parent="1">
          <mxGeometry x="-171" y="323" width="20" height="20" as="geometry" />
        </mxCell>
        <mxCell id="tiwmTEYdAeQqdNXuYiC4-17" style="edgeStyle=orthogonalEdgeStyle;rounded=0;orthogonalLoop=1;jettySize=auto;html=1;entryX=0;entryY=0.5;entryDx=0;entryDy=0;fontSize=12;startSize=8;endSize=8;" edge="1" parent="1" source="tiwmTEYdAeQqdNXuYiC4-11" target="tiwmTEYdAeQqdNXuYiC4-14">
          <mxGeometry relative="1" as="geometry" />
        </mxCell>
        <mxCell id="tiwmTEYdAeQqdNXuYiC4-19" style="edgeStyle=orthogonalEdgeStyle;shape=connector;rounded=0;orthogonalLoop=1;jettySize=auto;html=1;entryX=0.5;entryY=0;entryDx=0;entryDy=0;strokeColor=default;align=center;verticalAlign=middle;fontFamily=Helvetica;fontSize=12;fontColor=default;labelBackgroundColor=default;startSize=8;endArrow=classic;endSize=8;" edge="1" parent="1" source="tiwmTEYdAeQqdNXuYiC4-11" target="tiwmTEYdAeQqdNXuYiC4-18">
          <mxGeometry relative="1" as="geometry" />
        </mxCell>
        <mxCell id="tiwmTEYdAeQqdNXuYiC4-11" value="pila-&amp;gt;tamano &amp;lt; pila-&amp;gt;capacidad" style="rhombus;whiteSpace=wrap;html=1;" vertex="1" parent="1">
          <mxGeometry x="-489.5" y="210" width="253" height="64" as="geometry" />
        </mxCell>
        <mxCell id="tiwmTEYdAeQqdNXuYiC4-23" style="edgeStyle=orthogonalEdgeStyle;shape=connector;rounded=0;orthogonalLoop=1;jettySize=auto;html=1;entryX=0.5;entryY=0;entryDx=0;entryDy=0;strokeColor=default;align=center;verticalAlign=middle;fontFamily=Helvetica;fontSize=12;fontColor=default;labelBackgroundColor=default;startSize=8;endArrow=classic;endSize=8;" edge="1" parent="1" source="tiwmTEYdAeQqdNXuYiC4-14" target="tiwmTEYdAeQqdNXuYiC4-8">
          <mxGeometry relative="1" as="geometry" />
        </mxCell>
        <mxCell id="tiwmTEYdAeQqdNXuYiC4-14" value="return 0;" style="rounded=0;whiteSpace=wrap;html=1;" vertex="1" parent="1">
          <mxGeometry x="-200" y="228" width="78" height="28" as="geometry" />
        </mxCell>
        <mxCell id="tiwmTEYdAeQqdNXuYiC4-21" style="edgeStyle=orthogonalEdgeStyle;shape=connector;rounded=0;orthogonalLoop=1;jettySize=auto;html=1;entryX=0.5;entryY=0;entryDx=0;entryDy=0;strokeColor=default;align=center;verticalAlign=middle;fontFamily=Helvetica;fontSize=12;fontColor=default;labelBackgroundColor=default;startSize=8;endArrow=classic;endSize=8;" edge="1" parent="1" source="tiwmTEYdAeQqdNXuYiC4-18" target="tiwmTEYdAeQqdNXuYiC4-20">
          <mxGeometry relative="1" as="geometry" />
        </mxCell>
        <mxCell id="tiwmTEYdAeQqdNXuYiC4-18" value="&lt;div&gt;pila-&amp;gt;base[pila-&amp;gt;tamano]=dato;&lt;br&gt;&lt;/div&gt;&lt;div&gt;++(pila-&amp;gt;tamano);&lt;br&gt;&lt;/div&gt;" style="rounded=0;whiteSpace=wrap;html=1;fontFamily=Helvetica;fontSize=12;fontColor=default;labelBackgroundColor=default;" vertex="1" parent="1">
          <mxGeometry x="-472.5" y="303" width="219" height="60" as="geometry" />
        </mxCell>
        <mxCell id="tiwmTEYdAeQqdNXuYiC4-22" style="edgeStyle=orthogonalEdgeStyle;shape=connector;rounded=0;orthogonalLoop=1;jettySize=auto;html=1;entryX=0;entryY=0.5;entryDx=0;entryDy=0;strokeColor=default;align=center;verticalAlign=middle;fontFamily=Helvetica;fontSize=12;fontColor=default;labelBackgroundColor=default;startSize=8;endArrow=classic;endSize=8;" edge="1" parent="1" source="tiwmTEYdAeQqdNXuYiC4-20" target="tiwmTEYdAeQqdNXuYiC4-8">
          <mxGeometry relative="1" as="geometry">
            <Array as="points">
              <mxPoint x="-225" y="409" />
              <mxPoint x="-225" y="333" />
            </Array>
          </mxGeometry>
        </mxCell>
        <mxCell id="tiwmTEYdAeQqdNXuYiC4-20" value="return 1;" style="rounded=0;whiteSpace=wrap;html=1;fontFamily=Helvetica;fontSize=12;fontColor=default;labelBackgroundColor=default;" vertex="1" parent="1">
          <mxGeometry x="-399.5" y="392" width="73" height="34" as="geometry" />
        </mxCell>
        <mxCell id="tiwmTEYdAeQqdNXuYiC4-24" value="FIN" style="ellipse;whiteSpace=wrap;html=1;fontFamily=Helvetica;fontSize=12;fontColor=default;labelBackgroundColor=default;" vertex="1" parent="1">
          <mxGeometry x="-203.5" y="374" width="85" height="42" as="geometry" />
        </mxCell>
        <mxCell id="tiwmTEYdAeQqdNXuYiC4-27" value="V" style="text;html=1;align=center;verticalAlign=middle;whiteSpace=wrap;rounded=0;fontFamily=Helvetica;fontSize=12;fontColor=default;labelBackgroundColor=default;" vertex="1" parent="1">
          <mxGeometry x="-380" y="274" width="60" height="30" as="geometry" />
        </mxCell>
        <mxCell id="tiwmTEYdAeQqdNXuYiC4-28" value="F" style="text;html=1;align=center;verticalAlign=middle;whiteSpace=wrap;rounded=0;fontFamily=Helvetica;fontSize=12;fontColor=default;labelBackgroundColor=default;" vertex="1" parent="1">
          <mxGeometry x="-256" y="214" width="60" height="30" as="geometry" />
        </mxCell>
        <mxCell id="tiwmTEYdAeQqdNXuYiC4-31" style="edgeStyle=orthogonalEdgeStyle;shape=connector;rounded=0;orthogonalLoop=1;jettySize=auto;html=1;entryX=0.5;entryY=0;entryDx=0;entryDy=0;strokeColor=default;align=center;verticalAlign=middle;fontFamily=Helvetica;fontSize=12;fontColor=default;labelBackgroundColor=default;startSize=8;endArrow=classic;endSize=8;" edge="1" parent="1" source="tiwmTEYdAeQqdNXuYiC4-29" target="tiwmTEYdAeQqdNXuYiC4-30">
          <mxGeometry relative="1" as="geometry" />
        </mxCell>
        <mxCell id="tiwmTEYdAeQqdNXuYiC4-29" value="dato_t pila_estatica_pop(Pila_S* pila)" style="shape=step;perimeter=stepPerimeter;whiteSpace=wrap;html=1;fixedSize=1;" vertex="1" parent="1">
          <mxGeometry x="-552" y="483" width="378" height="54" as="geometry" />
        </mxCell>
        <mxCell id="tiwmTEYdAeQqdNXuYiC4-35" style="edgeStyle=orthogonalEdgeStyle;shape=connector;rounded=0;orthogonalLoop=1;jettySize=auto;html=1;entryX=1;entryY=0.5;entryDx=0;entryDy=0;strokeColor=default;align=center;verticalAlign=middle;fontFamily=Helvetica;fontSize=12;fontColor=default;labelBackgroundColor=default;startSize=8;endArrow=classic;endSize=8;" edge="1" parent="1" source="tiwmTEYdAeQqdNXuYiC4-30" target="tiwmTEYdAeQqdNXuYiC4-39">
          <mxGeometry relative="1" as="geometry">
            <Array as="points">
              <mxPoint x="-216" y="609" />
              <mxPoint x="-216" y="836" />
              <mxPoint x="-351" y="836" />
              <mxPoint x="-351" y="834" />
            </Array>
          </mxGeometry>
        </mxCell>
        <mxCell id="tiwmTEYdAeQqdNXuYiC4-36" style="edgeStyle=orthogonalEdgeStyle;shape=connector;rounded=0;orthogonalLoop=1;jettySize=auto;html=1;entryX=0.5;entryY=0;entryDx=0;entryDy=0;strokeColor=default;align=center;verticalAlign=middle;fontFamily=Helvetica;fontSize=12;fontColor=default;labelBackgroundColor=default;startSize=8;endArrow=classic;endSize=8;" edge="1" parent="1" source="tiwmTEYdAeQqdNXuYiC4-30" target="tiwmTEYdAeQqdNXuYiC4-32">
          <mxGeometry relative="1" as="geometry" />
        </mxCell>
        <mxCell id="tiwmTEYdAeQqdNXuYiC4-30" value="pila-&amp;gt;tamano &amp;gt; 0" style="rhombus;whiteSpace=wrap;html=1;" vertex="1" parent="1">
          <mxGeometry x="-489.5" y="577" width="253" height="64" as="geometry" />
        </mxCell>
        <mxCell id="tiwmTEYdAeQqdNXuYiC4-37" style="edgeStyle=orthogonalEdgeStyle;shape=connector;rounded=0;orthogonalLoop=1;jettySize=auto;html=1;entryX=0.5;entryY=0;entryDx=0;entryDy=0;strokeColor=default;align=center;verticalAlign=middle;fontFamily=Helvetica;fontSize=12;fontColor=default;labelBackgroundColor=default;startSize=8;endArrow=classic;endSize=8;" edge="1" parent="1" source="tiwmTEYdAeQqdNXuYiC4-32" target="tiwmTEYdAeQqdNXuYiC4-33">
          <mxGeometry relative="1" as="geometry" />
        </mxCell>
        <mxCell id="tiwmTEYdAeQqdNXuYiC4-32" value="--(pila&amp;gt;tamano);" style="rounded=0;whiteSpace=wrap;html=1;fontFamily=Helvetica;fontSize=12;fontColor=default;labelBackgroundColor=default;" vertex="1" parent="1">
          <mxGeometry x="-451.25" y="676" width="176.5" height="38" as="geometry" />
        </mxCell>
        <mxCell id="tiwmTEYdAeQqdNXuYiC4-38" style="edgeStyle=orthogonalEdgeStyle;shape=connector;rounded=0;orthogonalLoop=1;jettySize=auto;html=1;entryX=0.5;entryY=0;entryDx=0;entryDy=0;strokeColor=default;align=center;verticalAlign=middle;fontFamily=Helvetica;fontSize=12;fontColor=default;labelBackgroundColor=default;startSize=8;endArrow=classic;endSize=8;" edge="1" parent="1" source="tiwmTEYdAeQqdNXuYiC4-39">
          <mxGeometry relative="1" as="geometry">
            <mxPoint x="-363" y="871" as="targetPoint" />
          </mxGeometry>
        </mxCell>
        <mxCell id="tiwmTEYdAeQqdNXuYiC4-33" value="return pila-&amp;gt;base[pila-&amp;gt;tamano];" style="rounded=0;whiteSpace=wrap;html=1;fontFamily=Helvetica;fontSize=12;fontColor=default;labelBackgroundColor=default;" vertex="1" parent="1">
          <mxGeometry x="-468" y="748" width="210" height="42" as="geometry" />
        </mxCell>
        <mxCell id="tiwmTEYdAeQqdNXuYiC4-34" value="FIN" style="ellipse;whiteSpace=wrap;html=1;fontFamily=Helvetica;fontSize=12;fontColor=default;labelBackgroundColor=default;" vertex="1" parent="1">
          <mxGeometry x="-405.5" y="870" width="85" height="42" as="geometry" />
        </mxCell>
        <mxCell id="tiwmTEYdAeQqdNXuYiC4-40" value="" style="edgeStyle=orthogonalEdgeStyle;shape=connector;rounded=0;orthogonalLoop=1;jettySize=auto;html=1;entryX=0.5;entryY=0;entryDx=0;entryDy=0;strokeColor=default;align=center;verticalAlign=middle;fontFamily=Helvetica;fontSize=12;fontColor=default;labelBackgroundColor=default;startSize=8;endArrow=classic;endSize=8;" edge="1" parent="1" source="tiwmTEYdAeQqdNXuYiC4-33" target="tiwmTEYdAeQqdNXuYiC4-39">
          <mxGeometry relative="1" as="geometry">
            <mxPoint x="-363" y="790" as="sourcePoint" />
            <mxPoint x="-363" y="851" as="targetPoint" />
          </mxGeometry>
        </mxCell>
        <mxCell id="tiwmTEYdAeQqdNXuYiC4-39" value="" style="ellipse;whiteSpace=wrap;html=1;aspect=fixed;" vertex="1" parent="1">
          <mxGeometry x="-373" y="824" width="20" height="20" as="geometry" />
        </mxCell>
        <mxCell id="tiwmTEYdAeQqdNXuYiC4-42" value="V" style="text;html=1;align=center;verticalAlign=middle;whiteSpace=wrap;rounded=0;fontFamily=Helvetica;fontSize=12;fontColor=default;labelBackgroundColor=default;" vertex="1" parent="1">
          <mxGeometry x="-378" y="636" width="60" height="30" as="geometry" />
        </mxCell>
        <mxCell id="tiwmTEYdAeQqdNXuYiC4-43" value="F" style="text;html=1;align=center;verticalAlign=middle;whiteSpace=wrap;rounded=0;fontFamily=Helvetica;fontSize=12;fontColor=default;labelBackgroundColor=default;" vertex="1" parent="1">
          <mxGeometry x="-258" y="581" width="60" height="30" as="geometry" />
        </mxCell>
        <mxCell id="tiwmTEYdAeQqdNXuYiC4-45" style="edgeStyle=none;curved=1;rounded=0;orthogonalLoop=1;jettySize=auto;html=1;fontSize=12;startSize=8;endSize=8;" edge="1" parent="1" source="tiwmTEYdAeQqdNXuYiC4-46" target="tiwmTEYdAeQqdNXuYiC4-49">
          <mxGeometry relative="1" as="geometry" />
        </mxCell>
        <mxCell id="tiwmTEYdAeQqdNXuYiC4-46" value="dato_t pila_estatica_get(const Pila_S* pila)" style="shape=step;perimeter=stepPerimeter;whiteSpace=wrap;html=1;fixedSize=1;" vertex="1" parent="1">
          <mxGeometry x="-552" y="964" width="378" height="54" as="geometry" />
        </mxCell>
        <mxCell id="tiwmTEYdAeQqdNXuYiC4-47" value="FIN" style="ellipse;whiteSpace=wrap;html=1;" vertex="1" parent="1">
          <mxGeometry x="-410" y="1142" width="94" height="48" as="geometry" />
        </mxCell>
        <mxCell id="tiwmTEYdAeQqdNXuYiC4-48" style="edgeStyle=none;curved=1;rounded=0;orthogonalLoop=1;jettySize=auto;html=1;fontSize=12;startSize=8;endSize=8;" edge="1" parent="1" source="tiwmTEYdAeQqdNXuYiC4-49" target="tiwmTEYdAeQqdNXuYiC4-47">
          <mxGeometry relative="1" as="geometry" />
        </mxCell>
        <mxCell id="tiwmTEYdAeQqdNXuYiC4-49" value="return pila-&amp;gt;base[pila-&amp;gt;tamano-1];" style="rounded=0;whiteSpace=wrap;html=1;" vertex="1" parent="1">
          <mxGeometry x="-523" y="1052" width="320" height="60" as="geometry" />
        </mxCell>
        <mxCell id="tiwmTEYdAeQqdNXuYiC4-52" style="edgeStyle=orthogonalEdgeStyle;shape=connector;rounded=0;orthogonalLoop=1;jettySize=auto;html=1;entryX=0.5;entryY=0;entryDx=0;entryDy=0;strokeColor=default;align=center;verticalAlign=middle;fontFamily=Helvetica;fontSize=12;fontColor=default;labelBackgroundColor=default;startSize=8;endArrow=classic;endSize=8;" edge="1" parent="1" source="tiwmTEYdAeQqdNXuYiC4-50" target="tiwmTEYdAeQqdNXuYiC4-51">
          <mxGeometry relative="1" as="geometry" />
        </mxCell>
        <mxCell id="tiwmTEYdAeQqdNXuYiC4-50" value="Pila_D* pila_dinamica_crear(void)" style="shape=step;perimeter=stepPerimeter;whiteSpace=wrap;html=1;fixedSize=1;" vertex="1" parent="1">
          <mxGeometry x="-28.5" y="-184" width="378" height="54" as="geometry" />
        </mxCell>
        <mxCell id="tiwmTEYdAeQqdNXuYiC4-57" style="edgeStyle=orthogonalEdgeStyle;shape=connector;rounded=0;orthogonalLoop=1;jettySize=auto;html=1;entryX=0.5;entryY=0;entryDx=0;entryDy=0;strokeColor=default;align=center;verticalAlign=middle;fontFamily=Helvetica;fontSize=12;fontColor=default;labelBackgroundColor=default;startSize=8;endArrow=classic;endSize=8;" edge="1" parent="1" source="tiwmTEYdAeQqdNXuYiC4-51" target="tiwmTEYdAeQqdNXuYiC4-53">
          <mxGeometry relative="1" as="geometry" />
        </mxCell>
        <mxCell id="tiwmTEYdAeQqdNXuYiC4-51" value="Pila_D* pila = (Pila_D*)malloc(sizeof(Pila_D))" style="rounded=0;whiteSpace=wrap;html=1;" vertex="1" parent="1">
          <mxGeometry x="19.5" y="-91" width="282" height="36" as="geometry" />
        </mxCell>
        <mxCell id="tiwmTEYdAeQqdNXuYiC4-58" style="edgeStyle=orthogonalEdgeStyle;shape=connector;rounded=0;orthogonalLoop=1;jettySize=auto;html=1;entryX=0;entryY=0.5;entryDx=0;entryDy=0;strokeColor=default;align=center;verticalAlign=middle;fontFamily=Helvetica;fontSize=12;fontColor=default;labelBackgroundColor=default;startSize=8;endArrow=classic;endSize=8;" edge="1" parent="1" source="tiwmTEYdAeQqdNXuYiC4-53" target="tiwmTEYdAeQqdNXuYiC4-54">
          <mxGeometry relative="1" as="geometry" />
        </mxCell>
        <mxCell id="tiwmTEYdAeQqdNXuYiC4-59" style="edgeStyle=orthogonalEdgeStyle;shape=connector;rounded=0;orthogonalLoop=1;jettySize=auto;html=1;entryX=0.5;entryY=0;entryDx=0;entryDy=0;strokeColor=default;align=center;verticalAlign=middle;fontFamily=Helvetica;fontSize=12;fontColor=default;labelBackgroundColor=default;startSize=8;endArrow=classic;endSize=8;" edge="1" parent="1" source="tiwmTEYdAeQqdNXuYiC4-53" target="tiwmTEYdAeQqdNXuYiC4-55">
          <mxGeometry relative="1" as="geometry" />
        </mxCell>
        <mxCell id="tiwmTEYdAeQqdNXuYiC4-53" value="!pila" style="rhombus;whiteSpace=wrap;html=1;" vertex="1" parent="1">
          <mxGeometry x="113" y="-20" width="95" height="42" as="geometry" />
        </mxCell>
        <mxCell id="tiwmTEYdAeQqdNXuYiC4-64" style="edgeStyle=orthogonalEdgeStyle;shape=connector;rounded=0;orthogonalLoop=1;jettySize=auto;html=1;strokeColor=default;align=center;verticalAlign=middle;fontFamily=Helvetica;fontSize=12;fontColor=default;labelBackgroundColor=default;startSize=8;endArrow=classic;endSize=8;" edge="1" parent="1" source="tiwmTEYdAeQqdNXuYiC4-54" target="tiwmTEYdAeQqdNXuYiC4-61">
          <mxGeometry relative="1" as="geometry" />
        </mxCell>
        <mxCell id="tiwmTEYdAeQqdNXuYiC4-54" value="return NULL;" style="rounded=0;whiteSpace=wrap;html=1;" vertex="1" parent="1">
          <mxGeometry x="284" y="-18" width="109" height="38" as="geometry" />
        </mxCell>
        <mxCell id="tiwmTEYdAeQqdNXuYiC4-68" style="edgeStyle=orthogonalEdgeStyle;shape=connector;rounded=0;orthogonalLoop=1;jettySize=auto;html=1;strokeColor=default;align=center;verticalAlign=middle;fontFamily=Helvetica;fontSize=12;fontColor=default;labelBackgroundColor=default;startSize=8;endArrow=classic;endSize=8;" edge="1" parent="1" source="tiwmTEYdAeQqdNXuYiC4-55">
          <mxGeometry relative="1" as="geometry">
            <mxPoint x="160.5" y="151" as="targetPoint" />
          </mxGeometry>
        </mxCell>
        <mxCell id="tiwmTEYdAeQqdNXuYiC4-55" value="&lt;div&gt;pila-&amp;gt;tope=NULL;&lt;/div&gt;&lt;div&gt;pila-&amp;gt;taman=0;&lt;br&gt;&lt;/div&gt;" style="rounded=0;whiteSpace=wrap;html=1;fontFamily=Helvetica;fontSize=12;fontColor=default;labelBackgroundColor=default;" vertex="1" parent="1">
          <mxGeometry x="51" y="56" width="219" height="60" as="geometry" />
        </mxCell>
        <mxCell id="tiwmTEYdAeQqdNXuYiC4-63" style="edgeStyle=orthogonalEdgeStyle;shape=connector;rounded=0;orthogonalLoop=1;jettySize=auto;html=1;entryX=0;entryY=0.5;entryDx=0;entryDy=0;strokeColor=default;align=center;verticalAlign=middle;fontFamily=Helvetica;fontSize=12;fontColor=default;labelBackgroundColor=default;startSize=8;endArrow=classic;endSize=8;" edge="1" parent="1" source="tiwmTEYdAeQqdNXuYiC4-56" target="tiwmTEYdAeQqdNXuYiC4-61">
          <mxGeometry relative="1" as="geometry">
            <Array as="points">
              <mxPoint x="283" y="172" />
              <mxPoint x="283" y="107" />
            </Array>
          </mxGeometry>
        </mxCell>
        <mxCell id="tiwmTEYdAeQqdNXuYiC4-56" value="return pila;" style="rounded=0;whiteSpace=wrap;html=1;" vertex="1" parent="1">
          <mxGeometry x="106" y="153" width="109" height="38" as="geometry" />
        </mxCell>
        <mxCell id="tiwmTEYdAeQqdNXuYiC4-65" style="edgeStyle=orthogonalEdgeStyle;shape=connector;rounded=0;orthogonalLoop=1;jettySize=auto;html=1;strokeColor=default;align=center;verticalAlign=middle;fontFamily=Helvetica;fontSize=12;fontColor=default;labelBackgroundColor=default;startSize=8;endArrow=classic;endSize=8;" edge="1" parent="1" source="tiwmTEYdAeQqdNXuYiC4-61" target="tiwmTEYdAeQqdNXuYiC4-62">
          <mxGeometry relative="1" as="geometry" />
        </mxCell>
        <mxCell id="tiwmTEYdAeQqdNXuYiC4-61" value="" style="ellipse;whiteSpace=wrap;html=1;aspect=fixed;" vertex="1" parent="1">
          <mxGeometry x="328.5" y="96.5" width="20" height="20" as="geometry" />
        </mxCell>
        <mxCell id="tiwmTEYdAeQqdNXuYiC4-62" value="FIN" style="ellipse;whiteSpace=wrap;html=1;fontFamily=Helvetica;fontSize=12;fontColor=default;labelBackgroundColor=default;" vertex="1" parent="1">
          <mxGeometry x="296" y="156" width="85" height="42" as="geometry" />
        </mxCell>
        <mxCell id="tiwmTEYdAeQqdNXuYiC4-66" value="F" style="text;html=1;align=center;verticalAlign=middle;whiteSpace=wrap;rounded=0;fontFamily=Helvetica;fontSize=12;fontColor=default;labelBackgroundColor=default;" vertex="1" parent="1">
          <mxGeometry x="215" y="-30" width="60" height="30" as="geometry" />
        </mxCell>
        <mxCell id="tiwmTEYdAeQqdNXuYiC4-67" value="V" style="text;html=1;align=center;verticalAlign=middle;whiteSpace=wrap;rounded=0;fontFamily=Helvetica;fontSize=12;fontColor=default;labelBackgroundColor=default;" vertex="1" parent="1">
          <mxGeometry x="144" y="22" width="60" height="30" as="geometry" />
        </mxCell>
      </root>
    </mxGraphModel>
  </diagram>
</mxfile>
